<?xml version="1.0" standalone="no"?>
<!DOCTYPE svg PUBLIC "-//W3C//DTD SVG 20010904//EN"
 "http://www.w3.org/TR/2001/REC-SVG-20010904/DTD/svg10.dtd">
<svg version="1.0" xmlns="http://www.w3.org/2000/svg"
 width="600.000000pt" height="600.000000pt" viewBox="0 0 600.000000 600.000000"
 preserveAspectRatio="xMidYMid meet">
<metadata>
Created by potrace 1.11, written by Peter Selinger 2001-2013
</metadata>
<g transform="translate(0.000000,600.000000) scale(0.100000,-0.100000)"
fill="#000000" stroke="none">
<path d="M3370 4945 c-155 -27 -267 -83 -371 -185 -149 -147 -230 -344 -254
-620 -11 -134 -14 -178 -16 -295 l-2 -121 -184 1 -183 1 0 -48 0 -48 185 0
184 0 -2 -977 c-3 -972 -3 -978 -24 -1035 -37 -100 -108 -144 -250 -155 -78
-6 -82 -10 -75 -70 l4 -33 177 7 c217 9 543 9 844 1 l227 -7 0 49 0 48 -35 0
c-28 0 -143 12 -165 17 -3 1 -21 5 -40 9 -82 19 -162 73 -198 135 -50 86 -50
85 -50 1081 l0 930 246 2 246 3 1 37 c1 20 -1 41 -4 45 -3 5 -114 9 -246 8
l-240 0 1 250 c0 245 8 466 19 535 30 192 88 287 211 345 103 49 275 38 339
-21 29 -27 33 -54 7 -54 -28 0 -104 -55 -129 -92 -50 -75 -49 -201 2 -275 80
-119 263 -143 375 -51 9 7 29 30 44 50 24 32 29 50 33 120 4 69 1 93 -17 141
-44 118 -176 221 -335 263 -75 19 -239 24 -325 9z"/>
</g>
</svg>
